<svg width="12" height="14" viewBox="0 0 12 14" fill="none" xmlns="http://www.w3.org/2000/svg">
<path d="M1.23483 8.06812C0.866077 6.43415 1.35563 4.75568 2.53819 3.57312C4.00686 2.10445 6.19396 1.74841 8.00595 2.60672L6.52457 2.79746L6.66444 3.90372L10.1613 3.45867L9.46826 0L8.37471 0.222525L8.67352 1.69119C6.40377 0.527702 3.5936 0.940963 1.74982 2.78474C0.29387 4.23433 -0.303769 6.30064 0.147639 8.30972C0.230291 8.67847 0.351091 9.04723 0.503679 9.39055C0.592689 9.59401 0.789783 9.72752 1.01231 9.72752C1.0886 9.72752 1.1649 9.7148 1.23483 9.68301C1.36835 9.62579 1.47643 9.51771 1.52729 9.37784C1.58451 9.23797 1.57816 9.09173 1.52094 8.95186C1.40014 8.66576 1.29841 8.36694 1.23483 8.06812Z" fill="white"/>
<path d="M11.7833 5.70923C11.7006 5.34047 11.5862 4.97807 11.4336 4.62839C11.3764 4.48852 11.2683 4.38679 11.1284 4.32957C10.9886 4.27235 10.836 4.27871 10.7025 4.33593C10.5689 4.39315 10.4609 4.50123 10.4036 4.64111C10.3528 4.78098 10.3528 4.93357 10.41 5.06708C10.5371 5.35319 10.6325 5.65201 10.6961 5.95083C11.0585 7.57844 10.5689 9.25691 9.39273 10.4331C7.91771 11.9018 5.73697 12.2578 3.91862 11.3995L5.4 11.2088L5.26013 10.1025L1.76331 10.5476L2.46267 13.9999L3.55622 13.7773L3.2574 12.3087C4.09664 12.741 5.01853 12.9635 5.96585 12.9635C7.54895 12.9635 9.04941 12.3405 10.1811 11.2088C11.6243 9.7719 12.2283 7.71195 11.7833 5.70923Z" fill="white"/>
</svg>
